<?xml version="1.0" standalone="no"?>
<!DOCTYPE svg PUBLIC "-//W3C//DTD SVG 20010904//EN"
 "http://www.w3.org/TR/2001/REC-SVG-20010904/DTD/svg10.dtd">
<svg version="1.0" xmlns="http://www.w3.org/2000/svg"
 width="24.000000pt" height="24.000000pt" viewBox="0 0 24.000000 24.000000"
 preserveAspectRatio="xMidYMid meet">

<g transform="translate(0.000000,24.000000) scale(0.100000,-0.100000)"
fill="#000000" stroke="none">
<path d="M0 220 c0 -19 7 -20 120 -20 113 0 120 1 120 20 0 19 -7 20 -120 20
-113 0 -120 -1 -120 -20z"/>
<path d="M73 143 l47 -48 47 48 48 47 -95 0 -95 0 48 -47z"/>
<path d="M10 120 c0 -27 4 -50 8 -50 5 0 19 11 32 25 l23 25 -23 25 c-13 14
-27 25 -32 25 -4 0 -8 -22 -8 -50z"/>
<path d="M190 145 l-23 -25 23 -25 c13 -14 27 -25 32 -25 4 0 8 23 8 50 0 28
-4 50 -8 50 -5 0 -19 -11 -32 -25z"/>
<path d="M55 80 l-29 -30 94 0 94 0 -29 30 c-27 28 -30 29 -47 13 -17 -15 -19
-15 -36 0 -17 16 -20 15 -47 -13z"/>
<path d="M0 20 c0 -19 7 -20 120 -20 113 0 120 1 120 20 0 19 -7 20 -120 20
-113 0 -120 -1 -120 -20z"/>
</g>
</svg>
